<svg width="1024" height="1024" viewBox="0 0 1024 1024" fill="none" xmlns="http://www.w3.org/2000/svg">
  <defs>
    <linearGradient id="bgGradient" x1="0%" y1="0%" x2="100%" y2="100%">
      <stop offset="0%" style="stop-color:#6B46C1;stop-opacity:1" />
      <stop offset="100%" style="stop-color:#9333EA;stop-opacity:1" />
    </linearGradient>
    <linearGradient id="accentGradient" x1="0%" y1="0%" x2="100%" y2="100%">
      <stop offset="0%" style="stop-color:#F59E0B;stop-opacity:1" />
      <stop offset="100%" style="stop-color:#EF4444;stop-opacity:1" />
    </linearGradient>
  </defs>
  
  <rect width="1024" height="1024" rx="200" fill="url(#bgGradient)"/>
  
  <circle cx="512" cy="480" r="240" fill="none" stroke="white" stroke-width="12" opacity="0.3"/>
  <circle cx="512" cy="480" r="180" fill="none" stroke="white" stroke-width="8" opacity="0.2"/>
  
  <ellipse cx="512" cy="480" rx="240" ry="80" fill="none" stroke="white" stroke-width="6" opacity="0.25"/>
  <ellipse cx="512" cy="480" rx="240" ry="160" fill="none" stroke="white" stroke-width="6" opacity="0.25"/>
  
  <path d="M 512 240 Q 380 480 512 720" fill="none" stroke="white" stroke-width="6" opacity="0.25"/>
  <path d="M 512 240 Q 644 480 512 720" fill="none" stroke="white" stroke-width="6" opacity="0.25"/>
  
  <rect x="280" y="370" width="160" height="100" rx="20" fill="white" opacity="0.95"/>
  <path d="M 320 470 L 300 500 L 340 470 Z" fill="white" opacity="0.95"/>
  
  <rect x="300" y="390" width="120" height="12" rx="6" fill="url(#bgGradient)"/>
  <rect x="300" y="415" width="90" height="12" rx="6" fill="url(#bgGradient)" opacity="0.7"/>
  <rect x="300" y="440" width="100" height="12" rx="6" fill="url(#bgGradient)" opacity="0.5"/>
  
  <rect x="584" y="370" width="160" height="100" rx="20" fill="url(#accentGradient)" opacity="0.95"/>
  <path d="M 704 470 L 724 500 L 684 470 Z" fill="url(#accentGradient)" opacity="0.95"/>
  
  <rect x="604" y="390" width="120" height="12" rx="6" fill="white"/>
  <rect x="604" y="415" width="100" height="12" rx="6" fill="white" opacity="0.9"/>
  <rect x="604" y="440" width="110" height="12" rx="6" fill="white" opacity="0.8"/>
  
  <path d="M 450 420 L 570 420" stroke="white" stroke-width="10" stroke-linecap="round" opacity="0.9"/>
  <path d="M 550 400 L 580 420 L 550 440" stroke="white" stroke-width="10" stroke-linecap="round" stroke-linejoin="round" fill="none" opacity="0.9"/>
  
  <g transform="translate(512, 620)">
    <rect x="-25" y="-60" width="50" height="80" rx="25" fill="white"/>
    <rect x="-25" y="-60" width="50" height="80" rx="25" fill="url(#accentGradient)" opacity="0.3"/>
    
    <path d="M -40 40 Q 0 60 40 40" stroke="white" stroke-width="8" fill="none" stroke-linecap="round"/>
    <line x1="0" y1="20" x2="0" y2="50" stroke="white" stroke-width="8" stroke-linecap="round"/>
    
    <path d="M -70 -20 Q -80 0 -70 20" stroke="white" stroke-width="6" fill="none" stroke-linecap="round" opacity="0.6"/>
    <path d="M 70 -20 Q 80 0 70 20" stroke="white" stroke-width="6" fill="none" stroke-linecap="round" opacity="0.6"/>
    <path d="M -90 -30 Q -105 0 -90 30" stroke="white" stroke-width="6" fill="none" stroke-linecap="round" opacity="0.4"/>
    <path d="M 90 -30 Q 105 0 90 30" stroke="white" stroke-width="6" fill="none" stroke-linecap="round" opacity="0.4"/>
  </g>
  
  <circle cx="200" cy="200" r="8" fill="white" opacity="0.3"/>
  <circle cx="824" cy="200" r="10" fill="white" opacity="0.4"/>
  <circle cx="200" cy="824" r="12" fill="white" opacity="0.35"/>
  <circle cx="824" cy="750" r="8" fill="white" opacity="0.3"/>
</svg>
